<?xml version="1.0" encoding="UTF-8" standalone="no"?>
<!-- Created with Inkscape (http://www.inkscape.org/) -->
<svg xmlns:svg="http://www.w3.org/2000/svg" xmlns="http://www.w3.org/2000/svg" version="1.0" width="728.82349" height="308.30368" id="svg2558">
  <defs id="defs2560">
    <clipPath id="clipPath17">
      <path d="M 0,0 L 595.276,0 L 595.276,841.89 L 0,841.89 L 0,0 z" id="path19"/>
    </clipPath>
    <clipPath id="clipPath131">
      <path d="M 0,0 L 595.276,0 L 595.276,841.89 L 0,841.89 L 0,0 z" id="path133"/>
    </clipPath>
    <clipPath id="clipPath151">
      <path d="M 0,0 L 595.276,0 L 595.276,841.89 L 0,841.89 L 0,0 z" id="path153"/>
    </clipPath>
  </defs>
  <g transform="translate(-9.53384, -9.86211)" id="layer1">
    <g transform="matrix(2.32595, 0, 0, -2.32595, -316.561, 1572.46)" id="g13">
      <g clip-path="url(#clipPath17)" id="g15">
        <g transform="translate(194.193, 629.987)" id="g21">
          <path d="M 0,0 C -1.89,-1.09 -4.593,-1.774 -7.593,-1.774 C -10.596,-1.774 -13.297,-1.09 -15.187,0 C -17.079,1.086 -19.781,1.768 -22.779,1.768 C -25.781,1.768 -28.487,1.086 -30.374,0 C -32.267,-1.09 -34.968,-1.774 -37.971,-1.774 C -40.971,-1.774 -43.674,-1.09 -45.563,0 C -47.454,1.086 -50.154,1.768 -53.157,1.768 C -53.439,1.768 -53.716,1.758 -53.994,1.747 L -53.994,-8.38 C -53.716,-8.37 -53.439,-8.36 -53.157,-8.36 C -50.154,-8.36 -47.454,-9.04 -45.563,-10.129 C -43.674,-11.22 -40.971,-11.902 -37.971,-11.902 C -34.968,-11.902 -32.267,-11.22 -30.374,-10.129 C -28.487,-9.04 -25.781,-8.36 -22.779,-8.36 C -19.781,-8.36 -17.079,-9.04 -15.187,-10.129 C -13.297,-11.22 -10.596,-11.902 -7.593,-11.902 C -4.593,-11.902 -1.89,-11.22 0,-10.129 C 1.89,-9.04 4.591,-8.36 7.593,-8.36 C 7.878,-8.36 8.155,-8.37 8.432,-8.382 L 8.432,1.747 C 8.155,1.758 7.878,1.768 7.593,1.768 C 4.591,1.768 1.89,1.086 0,0" id="path23" style="fill: rgb(27, 98, 183); fill-opacity: 1; fill-rule: nonzero; stroke: none;"/>
        </g>
        <g transform="translate(194.193, 609.732)" id="g25">
          <path d="M 0,0 C -1.89,-1.091 -4.593,-1.773 -7.593,-1.773 C -10.596,-1.773 -13.297,-1.091 -15.187,-0.003 C -17.079,1.088 -19.781,1.769 -22.779,1.769 C -25.781,1.769 -28.487,1.088 -30.374,-0.003 C -32.267,-1.091 -34.968,-1.773 -37.971,-1.773 C -40.971,-1.773 -43.674,-1.091 -45.563,-0.003 C -47.454,1.088 -50.154,1.769 -53.157,1.769 C -53.439,1.769 -53.716,1.758 -53.994,1.745 L -53.994,-5.283 C -53.994,-6.345 -53.957,-7.37 -53.895,-8.379 C -53.65,-8.369 -53.405,-8.356 -53.157,-8.356 C -50.154,-8.356 -47.454,-9.038 -45.563,-10.133 C -43.674,-11.217 -40.971,-11.898 -37.971,-11.898 C -34.968,-11.898 -32.267,-11.217 -30.374,-10.133 C -28.487,-9.038 -25.781,-8.356 -22.779,-8.356 C -19.781,-8.356 -17.079,-9.038 -15.187,-10.133 C -13.297,-11.217 -10.596,-11.898 -7.593,-11.898 C -4.593,-11.898 -1.89,-11.217 0,-10.13 C 1.89,-9.038 4.591,-8.356 7.593,-8.356 C 7.844,-8.356 8.09,-8.369 8.335,-8.379 C 8.394,-7.37 8.432,-6.345 8.432,-5.283 L 8.432,1.745 C 8.155,1.758 7.878,1.769 7.593,1.769 C 4.591,1.769 1.89,1.088 0,0" id="path27" style="fill: rgb(27, 98, 183); fill-opacity: 1; fill-rule: nonzero; stroke: none;"/>
        </g>
        <g transform="translate(186.6, 587.707)" id="g29">
          <path d="M 0,0 C -3.003,0 -5.704,0.68 -7.594,1.767 C -9.486,2.858 -12.189,3.539 -15.187,3.539 C -18.188,3.539 -20.894,2.858 -22.781,1.767 C -24.674,0.68 -27.376,0 -30.379,0 C -33.379,-0.003 -36.081,0.68 -37.97,1.767 C -39.65,2.737 -41.971,3.381 -44.572,3.509 C -43.242,-0.943 -41.272,-4.686 -38.948,-7.872 C -38.604,-8.027 -38.273,-8.185 -37.97,-8.36 C -36.081,-9.447 -33.379,-10.132 -30.379,-10.131 C -27.376,-10.131 -24.674,-9.447 -22.781,-8.36 C -20.894,-7.27 -18.188,-6.583 -15.187,-6.583 C -12.189,-6.583 -9.486,-7.269 -7.594,-8.36 C -5.704,-9.447 -3.003,-10.131 0,-10.131 C 3,-10.131 5.703,-9.447 7.593,-8.36 C 7.898,-8.184 8.229,-8.024 8.573,-7.872 C 10.898,-4.686 12.862,-0.943 14.193,3.509 C 11.593,3.381 9.271,2.737 7.593,1.767 C 5.703,0.68 3,0 0,0" id="path31" style="fill: rgb(27, 98, 183); fill-opacity: 1; fill-rule: nonzero; stroke: none;"/>
        </g>
        <g transform="translate(179.005, 569.222)" id="g33">
          <path d="M 0,0 C -1.892,1.088 -4.594,1.769 -7.592,1.769 C -10.594,1.769 -13.3,1.088 -15.187,0 C -16.096,-0.524 -17.196,-0.95 -18.425,-1.256 C -14.07,-4.165 -10.047,-6.305 -7.592,-8.356 C -5.141,-6.305 -1.118,-4.165 3.237,-1.256 C 2.008,-0.95 0.91,-0.524 0,0" id="path35" style="fill: rgb(27, 98, 183); fill-opacity: 1; fill-rule: nonzero; stroke: none;"/>
        </g>
        <g transform="translate(158.36, 647.315)" id="g37">
          <path d="M 0,0 C -0.192,-0.029 -0.381,-0.08 -0.574,-0.116 C -1.081,-0.2 -1.561,-0.214 -2.044,-0.195 C -2.541,-0.18 -3.127,-0.061 -3.46,0.155 C -3.544,-0.344 -2.926,-1.002 -2.404,-1.355 C -2.044,-1.599 -1.669,-1.81 -1.269,-1.943 C -1.111,-1.997 -0.955,-2.025 -0.799,-2.083 C -0.319,-2.251 0.149,-2.557 0.524,-2.887 C 1.007,-3.315 1.408,-3.857 1.779,-4.336 C 2.077,-2.938 2.635,-1.627 3.396,-0.465 C 2.891,-0.285 2.345,-0.09 1.749,0 C 1.222,0.084 0.597,0.093 0,0 M 1.68,-4.881 L -9.457,-6.765 L 1.683,-8.646 C 1.586,-8.03 1.517,-7.404 1.517,-6.763 C 1.517,-6.123 1.586,-5.495 1.68,-4.881 M 6.332,6.771 C 6.406,6.624 6.498,6.488 6.567,6.34 C 6.784,5.881 6.906,5.331 6.934,4.837 C 6.97,4.192 6.872,3.523 6.795,2.927 L 6.795,2.913 C 7.957,3.671 9.27,4.226 10.674,4.523 C 10.443,5.009 10.198,5.531 9.842,6.013 C 9.528,6.444 9.089,6.894 8.608,7.248 C 8.447,7.365 8.278,7.46 8.116,7.574 C 7.695,7.871 7.352,8.199 7.017,8.551 C 6.683,8.917 6.349,9.418 6.268,9.808 C 5.858,9.511 5.827,8.61 5.947,7.989 C 6.033,7.558 6.144,7.155 6.332,6.771 M 19.82,4.536 C 19.903,5.065 19.911,5.694 19.82,6.292 C 19.79,6.483 19.731,6.669 19.701,6.865 C 19.613,7.372 19.6,7.845 19.613,8.332 C 19.637,8.828 19.75,9.421 19.971,9.753 C 19.474,9.828 18.814,9.216 18.461,8.692 C 18.215,8.329 18.009,7.962 17.875,7.553 C 17.819,7.403 17.785,7.24 17.735,7.09 C 17.562,6.61 17.255,6.135 16.928,5.761 C 16.498,5.285 15.959,4.878 15.474,4.516 C 15.474,4.516 15.474,4.51 15.472,4.51 C 16.876,4.208 18.185,3.653 19.35,2.891 C 19.532,3.399 19.719,3.947 19.82,4.536 M 14.992,4.595 L 13.054,24.496 L 11.111,4.595 C 11.745,4.699 12.388,4.769 13.054,4.769 C 13.713,4.769 14.358,4.699 14.992,4.595 M 27.067,-2.316 C 27.182,-2.157 27.275,-1.986 27.394,-1.829 C 27.685,-1.408 28.017,-1.062 28.368,-0.732 C 28.734,-0.395 29.234,-0.061 29.623,0.022 C 29.327,0.428 28.423,0.465 27.804,0.342 C 27.379,0.26 26.974,0.147 26.587,-0.045 C 26.434,-0.117 26.305,-0.21 26.154,-0.281 C 25.697,-0.497 25.15,-0.616 24.648,-0.645 C 24.01,-0.687 23.339,-0.583 22.738,-0.504 L 22.729,-0.504 C 23.487,-1.673 24.04,-2.978 24.337,-4.386 C 24.824,-4.157 25.34,-3.908 25.828,-3.553 C 26.259,-3.24 26.71,-2.804 27.067,-2.316 M 6.491,2.714 L -0.117,6.412 L 3.569,-0.2 C 4.366,0.94 5.352,1.928 6.491,2.714 M 19.613,2.714 C 20.752,1.928 21.742,0.94 22.533,-0.2 L 26.224,6.412 L 19.613,2.714 z M 35.561,-6.765 L 24.416,-4.881 C 24.52,-5.495 24.588,-6.123 24.588,-6.763 C 24.588,-7.404 24.52,-8.03 24.416,-8.646 L 35.561,-6.765 z" id="path39" style="fill: rgb(217, 176, 19); fill-opacity: 1; fill-rule: nonzero; stroke: none;"/>
        </g>
        <g transform="translate(171.413, 641.882)" id="g41">
          <path d="M 0,0 C 2.998,0 5.7,-0.683 7.592,-1.772 C 8.114,-2.074 8.712,-2.341 9.35,-2.571 C 9.404,-2.166 9.442,-1.755 9.442,-1.331 C 9.442,3.888 5.212,8.114 0,8.114 C -5.216,8.114 -9.45,3.888 -9.45,-1.331 C -9.45,-1.755 -9.411,-2.166 -9.351,-2.571 C -8.714,-2.341 -8.12,-2.074 -7.594,-1.772 C -5.708,-0.683 -3.001,0 0,0" id="path43" style="fill: rgb(217, 176, 19); fill-opacity: 1; fill-rule: nonzero; stroke: none;"/>
        </g>
        <g transform="translate(218.961, 625.132)" id="g45">
          <path d="M 0,0 C 0,4.179 -0.077,4.94 -5.053,5.659 L -5.053,6.23 L 8.017,6.23 L 8.017,5.659 C 3.458,5.054 3.344,3.914 3.344,0 L 3.344,-13.597 C 3.381,-20.97 2.508,-22.601 -5.736,-26.133 L -6.039,-25.488 C -0.456,-22.867 0,-18.764 0,-11.929 L 0,0 z" id="path47" style="fill: rgb(35, 31, 32); fill-opacity: 1; fill-rule: nonzero; stroke: none;"/>
        </g>
        <g transform="translate(233.334, 616.36)" id="g49">
          <path d="M 0,0 C -0.645,-1.901 -2.32,-5.852 -2.32,-7.675 C -2.32,-9.991 0.302,-9.991 2.013,-10.26 L 2.013,-10.827 L -8.395,-10.827 L -8.395,-10.26 C -5.012,-9.347 -4.673,-8.588 -3.495,-5.624 L 0.796,5.583 L 3.077,11.775 C 3.418,12.763 3.912,13.673 3.495,14.395 C 4.521,14.814 5.47,15.496 6.269,16.446 L 14.625,-5.816 C 15.649,-8.588 16.297,-9.69 19.335,-10.26 L 19.335,-10.827 L 8.167,-10.827 L 8.167,-10.26 C 9.498,-9.955 11.093,-9.535 11.093,-7.826 C 11.093,-6.231 9.648,-2.662 8.66,0 L 0,0 z M 4.217,11.622 L 0.645,1.745 L 8.167,1.745 L 4.217,11.622 z" id="path51" style="fill: rgb(35, 31, 32); fill-opacity: 1; fill-rule: nonzero; stroke: none;"/>
        </g>
        <g transform="translate(271.054, 611.078)" id="g53">
          <path d="M 0,0 L 6.876,15.118 C 7.826,17.206 8.357,19.108 7.52,19.677 L 7.597,20.285 L 15.95,20.285 L 15.95,19.714 C 13.522,19.22 12.041,18.31 12.192,15.65 L 13.03,1.823 C 13.446,-3.458 13.446,-4.294 17.509,-4.979 L 17.509,-5.546 L 5.016,-5.546 L 5.016,-4.979 C 7.938,-4.522 9.8,-4.18 9.61,-0.835 L 8.583,15.764 L 8.509,15.764 L -1.175,-5.546 L -1.593,-5.546 L -10.597,14.89 L -10.672,14.89 C -11.281,9.078 -11.585,4.862 -11.852,-1.023 C -11.925,-2.508 -11.888,-4.216 -7.293,-4.979 L -7.293,-5.546 L -17.888,-5.546 L -17.888,-4.979 C -14.507,-4.408 -14.168,-2.772 -13.634,0.302 L -12.229,10.979 L -11.734,16.144 C -11.507,18.652 -13.673,19.526 -15.914,19.714 L -15.914,20.285 L -7.71,20.285 L -7.672,19.868 C -8.508,18.994 -7.484,16.714 -7.215,16.106 L 0,0 z" id="path55" style="fill: rgb(35, 31, 32); fill-opacity: 1; fill-rule: nonzero; stroke: none;"/>
        </g>
        <g transform="translate(290.126, 606.099)" id="g57">
          <path d="M 0,0 C 4.56,0.608 4.596,1.749 4.707,5.661 L 4.707,19.033 C 4.596,22.947 4.56,24.086 0,24.692 L 0,25.263 L 20.398,25.263 L 19.942,19.415 L 19.374,19.415 C 19.105,24.313 15.573,24.353 11.739,24.353 L 8.054,24.353 L 8.054,13.526 L 12.002,13.526 C 14.853,13.526 17.018,13.755 17.435,17.019 L 18.005,17.019 L 18.005,8.548 L 17.435,8.548 C 16.94,11.892 14.853,11.932 12.002,11.932 L 8.054,11.932 L 8.054,5.701 C 8.054,3.461 7.52,0.346 13.752,0.346 C 18.539,0.346 20.893,2.165 21.845,6.953 L 22.415,6.953 C 22.377,4.066 21.884,1.712 21.121,-0.567 L 0,-0.567 L 0,0 z" id="path59" style="fill: rgb(35, 31, 32); fill-opacity: 1; fill-rule: nonzero; stroke: none;"/>
        </g>
        <g transform="translate(329.945, 624.675)" id="g61">
          <path d="M 0,0 L -0.608,0 C -1.215,3.08 -2.203,6.041 -5.963,6.041 C -8.396,6.041 -10.408,4.37 -10.408,1.863 C -10.408,-4.707 1.557,-4.482 1.557,-12.154 C 1.557,-17.056 -3.307,-19.601 -7.672,-19.601 C -9.991,-19.601 -12.424,-18.915 -14.356,-17.663 L -15.46,-11.203 L -14.779,-11.203 C -13.829,-14.853 -11.284,-18.462 -7.103,-18.462 C -4.294,-18.462 -2.089,-16.79 -2.089,-13.826 C -2.089,-7.064 -13.711,-7.671 -13.711,-0.074 C -13.711,4.37 -9.304,7.18 -5.244,7.18 C -3.307,7.18 -1.368,6.611 0.306,5.7 L 0,0 z" id="path63" style="fill: rgb(35, 31, 32); fill-opacity: 1; fill-rule: nonzero; stroke: none;"/>
        </g>
        <g transform="translate(363.569, 623.538)" id="g65">
          <path d="M 0,0 L -0.571,0 C -1.292,4.293 -3.801,7.369 -8.356,7.369 C -15.31,7.369 -19.225,1.672 -19.225,-4.862 C -19.225,-12.349 -13.49,-17.549 -7.978,-17.549 C -3.005,-17.549 -1.029,-13.903 0.681,-9.801 L 1.215,-10.029 C 0.755,-12.349 0.037,-14.625 -0.876,-16.83 C -3.306,-18.005 -5.93,-18.463 -8.629,-18.463 C -16.567,-18.463 -23.631,-13.903 -23.631,-5.318 C -23.631,1.443 -18.351,8.282 -8.321,8.282 C -5.432,8.282 -2.509,7.711 0,6.23 L 0,0 z" id="path67" style="fill: rgb(35, 31, 32); fill-opacity: 1; fill-rule: nonzero; stroke: none;"/>
        </g>
        <g transform="translate(394.57, 618.447)" id="g69">
          <path d="M 0,0 C 0,-8.168 -5.925,-13.372 -13.903,-13.372 C -21.916,-13.372 -27.808,-8.168 -27.808,0.038 C -27.808,8.131 -21.88,13.372 -13.94,13.372 C -4.213,13.372 0,6.762 0,0 M -23.4,0.95 C -23.4,-4.939 -20.285,-12.459 -13.448,-12.459 C -7.181,-12.459 -4.405,-6.076 -4.405,-0.648 C -4.521,6.08 -8.434,12.459 -14.245,12.459 C -20.782,12.459 -23.4,6.08 -23.4,0.95" id="path71" style="fill: rgb(35, 31, 32); fill-opacity: 1; fill-rule: nonzero; stroke: none;"/>
        </g>
        <g transform="translate(425.078, 618.447)" id="g73">
          <path d="M 0,0 C 0,-8.168 -5.924,-13.372 -13.901,-13.372 C -21.917,-13.372 -27.807,-8.168 -27.807,0.038 C -27.807,8.131 -21.88,13.372 -13.938,13.372 C -4.213,13.372 0,6.762 0,0 M -23.399,0.95 C -23.399,-4.939 -20.286,-12.459 -13.447,-12.459 C -7.175,-12.459 -4.405,-6.076 -4.405,-0.648 C -4.519,6.08 -8.432,12.459 -14.245,12.459 C -20.775,12.459 -23.399,6.08 -23.399,0.95" id="path75" style="fill: rgb(35, 31, 32); fill-opacity: 1; fill-rule: nonzero; stroke: none;"/>
        </g>
        <g transform="translate(433.829, 611.76)" id="g77">
          <path d="M 0,0 C 0.113,-3.912 0.149,-5.052 5.053,-5.661 L 5.053,-6.228 L -8.056,-6.228 L -8.056,-5.661 C -3.493,-5.052 -3.458,-3.912 -3.346,0 L -3.346,13.372 C -3.458,17.286 -3.493,18.426 -8.056,19.032 L -8.056,19.602 L 4.024,19.602 L 4.024,19.032 C 0.149,18.426 0.113,17.286 0,13.372 L 0,0 z M 17.169,19.602 L 17.169,19.032 C 12.84,18.575 9.952,14.892 7.139,11.969 L 3.571,8.168 L 11.282,-0.339 C 13.601,-2.884 16.335,-5.163 19.714,-6.114 L 19.525,-6.685 C 12.914,-6.155 11.853,-5.963 8.279,-2.051 L 0.528,6.385 L 6.647,13.03 C 10.635,17.513 9.874,18.766 7.329,19.032 L 7.329,19.602 L 17.169,19.602 z" id="path79" style="fill: rgb(35, 31, 32); fill-opacity: 1; fill-rule: nonzero; stroke: none;"/>
        </g>
        <g transform="translate(243.577, 595.708)" id="g81">
          <path d="M 0,0 L 0,-0.567 C -3.457,-0.947 -3.686,-3.076 -3.836,-8.091 L -4.066,-16.407 C -4.178,-21.312 -6.268,-26.284 -14.7,-26.284 C -26.476,-26.284 -25.261,-17.777 -25.261,-14.739 L -25.261,-6.231 C -25.376,-2.317 -25.414,-1.178 -29.973,-0.567 L -29.973,0 L -16.866,0 L -16.866,-0.567 C -21.843,-1.292 -21.917,-2.051 -21.917,-6.231 L -21.917,-14.017 C -21.917,-14.739 -23.135,-24.539 -12.726,-24.539 C -4.519,-24.539 -5.316,-16.713 -5.316,-12.08 L -5.316,-8.091 C -5.316,-3.266 -5.698,-1.064 -11.016,-0.567 L -11.016,0 L 0,0 z" id="path83" style="fill: rgb(35, 31, 32); fill-opacity: 1; fill-rule: nonzero; stroke: none;"/>
        </g>
        <g transform="translate(270.009, 575.843)" id="g85">
          <path d="M 0,0 L -0.189,13.865 C -0.228,17.475 -1.213,18.539 -5.506,19.298 L -5.506,19.865 L 4.86,19.865 L 4.86,19.298 C 2.239,18.956 1.748,17.511 1.444,15.04 C 0.911,10.864 1.101,1.709 1.291,-6.574 L 0.799,-6.692 C -5.279,0.49 -12.04,7.14 -18.458,14.057 L -18.458,7.064 C -18.458,-2.357 -18.687,-4.294 -13.181,-5.396 L -13.181,-5.966 L -24.535,-5.966 L -24.535,-5.396 C -19.409,-4.865 -19.6,-1.367 -19.6,7.251 L -19.6,12.953 C -19.6,16.75 -20.208,18.233 -25.031,19.298 L -25.031,19.865 L -18.764,19.865 L 0,0 z" id="path87" style="fill: rgb(35, 31, 32); fill-opacity: 1; fill-rule: nonzero; stroke: none;"/>
        </g>
        <g transform="translate(284.543, 576.105)" id="g89">
          <path d="M 0,0 C 0.114,-3.911 0.155,-5.053 4.711,-5.657 L 4.711,-6.228 L -8.051,-6.228 L -8.051,-5.657 C -3.495,-5.053 -3.454,-3.911 -3.342,0 L -3.342,13.372 C -3.454,17.286 -3.495,18.425 -8.051,19.036 L -8.051,19.603 L 4.711,19.603 L 4.711,19.036 C 0.155,18.425 0.114,17.286 0,13.372 L 0,0 z" id="path91" style="fill: rgb(35, 31, 32); fill-opacity: 1; fill-rule: nonzero; stroke: none;"/>
        </g>
        <g transform="translate(318.623, 595.708)" id="g93">
          <path d="M 0,0 L 0,-0.567 C -3.572,-0.873 -4.673,-3.871 -7.033,-9.381 L -14.292,-26.704 L -14.821,-26.704 L -23.403,-6.154 C -24.545,-3.377 -25.418,-0.947 -28.798,-0.567 L -28.798,0 L -16.758,0 L -16.758,-0.567 C -22.116,-1.101 -20.369,-4.14 -19.382,-6.533 L -13.305,-21.198 L -8.816,-10.445 C -5.551,-2.659 -4.942,-1.403 -10.718,-0.567 L -10.718,0 L 0,0 z" id="path95" style="fill: rgb(35, 31, 32); fill-opacity: 1; fill-rule: nonzero; stroke: none;"/>
        </g>
        <g transform="translate(318.967, 570.447)" id="g97">
          <path d="M 0,0 C 4.562,0.605 4.599,1.747 4.709,5.657 L 4.709,19.03 C 4.599,22.944 4.562,24.082 0,24.694 L 0,25.261 L 20.4,25.261 L 19.946,19.412 L 19.376,19.412 C 19.107,24.314 15.574,24.352 11.737,24.352 L 8.057,24.352 L 8.057,13.523 L 12.006,13.523 C 14.852,13.523 17.021,13.752 17.437,17.018 L 18.009,17.018 L 18.009,8.548 L 17.437,8.548 C 16.942,11.888 14.852,11.926 12.006,11.926 L 8.057,11.926 L 8.057,5.697 C 8.057,3.459 7.524,0.342 13.755,0.342 C 18.537,0.342 20.895,2.165 21.842,6.95 L 22.413,6.95 C 22.376,4.062 21.884,1.709 21.124,-0.57 L 0,-0.57 L 0,0 z" id="path99" style="fill: rgb(35, 31, 32); fill-opacity: 1; fill-rule: nonzero; stroke: none;"/>
        </g>
        <g transform="translate(347.567, 587.886)" id="g101">
          <path d="M 0,0 C 0,5.811 -0.189,6.684 -4.445,7.064 L -4.445,7.598 L 4.825,7.9 C 14.397,8.203 15.157,3.532 15.157,1.706 C 15.157,-1.484 13.183,-3.307 10.449,-4.522 L 10.637,-4.791 C 13.562,-9.918 17.207,-16.451 23.479,-17.747 L 23.363,-18.311 C 19.333,-18.119 16.373,-18.237 14.17,-15.957 C 11.664,-13.335 9.688,-9.994 8.89,-8.36 C 7.37,-5.208 6.003,-6.12 3.343,-5.661 L 3.343,-11.781 C 3.343,-15.957 3.417,-16.716 8.622,-17.438 L 8.622,-18.009 L -4.71,-18.009 L -4.71,-17.438 C -0.154,-16.834 -0.117,-15.692 0,-11.781 L 0,0 z M 3.343,-5.016 C 6.991,-4.978 11.246,-3.307 11.246,0.91 C 11.246,5.355 7.333,7.141 3.343,7.1 L 3.343,-5.016 z" id="path103" style="fill: rgb(35, 31, 32); fill-opacity: 1; fill-rule: nonzero; stroke: none;"/>
        </g>
        <g transform="translate(385.418, 589.024)" id="g105">
          <path d="M 0,0 L -0.606,0 C -1.214,3.075 -2.203,6.039 -5.96,6.039 C -8.394,6.039 -10.404,4.367 -10.404,1.859 C -10.404,-4.71 1.557,-4.482 1.557,-12.158 C 1.557,-17.056 -3.304,-19.6 -7.67,-19.6 C -9.989,-19.6 -12.422,-18.919 -14.359,-17.663 L -15.458,-11.207 L -14.776,-11.207 C -13.825,-14.857 -11.282,-18.463 -7.102,-18.463 C -4.291,-18.463 -2.09,-16.794 -2.09,-13.833 C -2.09,-7.067 -13.71,-7.675 -13.71,-0.078 C -13.71,4.367 -9.307,7.178 -5.243,7.178 C -3.304,7.178 -1.367,6.61 0.306,5.697 L 0,0 z" id="path107" style="fill: rgb(35, 31, 32); fill-opacity: 1; fill-rule: nonzero; stroke: none;"/>
        </g>
        <g transform="translate(396.529, 576.105)" id="g109">
          <path d="M 0,0 C 0.112,-3.911 0.153,-5.053 4.708,-5.657 L 4.708,-6.228 L -8.056,-6.228 L -8.056,-5.657 C -3.495,-5.053 -3.458,-3.911 -3.342,0 L -3.342,13.372 C -3.458,17.286 -3.495,18.425 -8.056,19.036 L -8.056,19.603 L 4.708,19.603 L 4.708,19.036 C 0.153,18.425 0.112,17.286 0,13.372 L 0,0 z" id="path111" style="fill: rgb(35, 31, 32); fill-opacity: 1; fill-rule: nonzero; stroke: none;"/>
        </g>
        <g transform="translate(426.325, 596.887)" id="g113">
          <path d="M 0,0 L 0.3,0 L 0.834,-7.104 L 0.3,-7.218 C -1.029,-2.504 -3.114,-2.317 -7.485,-2.317 L -9.769,-2.317 L -9.769,-19.868 C -9.769,-24.575 -9.536,-25.835 -4.446,-26.439 L -4.446,-27.01 L -18.425,-27.01 L -18.425,-26.439 C -13.337,-25.835 -13.109,-24.575 -13.109,-19.868 L -13.109,-2.317 L -15.385,-2.317 C -19.756,-2.317 -21.846,-2.504 -23.177,-7.218 L -23.705,-7.104 L -23.177,0 L -22.87,0 L -22.491,-0.342 C -21.541,-1.215 -21.388,-1.178 -20.135,-1.178 L -2.734,-1.178 C -1.484,-1.178 -1.331,-1.215 -0.381,-0.342 L 0,0 z" id="path115" style="fill: rgb(35, 31, 32); fill-opacity: 1; fill-rule: nonzero; stroke: none;"/>
        </g>
        <g transform="translate(452.241, 595.708)" id="g117">
          <path d="M 0,0 L 0,-0.567 C -3.306,-0.833 -4.937,-2.659 -6.536,-5.391 L -11.017,-14.282 L -11.017,-18.579 C -10.94,-22.944 -10.866,-24.502 -6.003,-25.261 L -6.003,-25.831 L -19.375,-25.831 L -19.375,-25.261 C -14.512,-24.502 -14.435,-22.944 -14.362,-18.579 L -14.362,-15.538 L -18.309,-6.912 C -19.756,-3.724 -20.781,-1.024 -24.617,-0.567 L -24.617,0 L -14.133,0 L -14.133,-0.567 C -17.249,-0.987 -16.83,-2.239 -15.612,-4.899 L -11.816,-13.103 L -8.511,-6.836 C -6.156,-2.431 -6.458,-0.987 -9.762,-0.567 L -9.762,0 L 0,0 z" id="path119" style="fill: rgb(35, 31, 32); fill-opacity: 1; fill-rule: nonzero; stroke: none;"/>
        </g>
      </g>
    </g>
    <path d="M 190.85672,264.39261 L 729.71874,264.39261 L 729.71874,266.18824 L 190.85672,266.18824 L 190.85672,264.39261 z" id="path121" style="fill: rgb(35, 31, 32); fill-opacity: 1; fill-rule: nonzero; stroke: none;"/>
    <g transform="matrix(2.32595, 0, 0, -2.32595, 200.877, 284.489)" id="g123">
      <path d="M 0,0 L 1.495,0 L 7.947,-14.257 L 6.228,-14.257 L 4.57,-10.517 L -3.135,-10.517 L -4.814,-14.257 L -6.451,-14.257 L 0,0 z M 3.943,-9.08 L 0.728,-1.862 L -2.508,-9.08 L 3.943,-9.08 z" id="path125" style="fill: rgb(35, 31, 32); fill-opacity: 1; fill-rule: nonzero; stroke: none;"/>
    </g>
    <g transform="matrix(2.32595, 0, 0, -2.32595, -316.561, 1572.46)" id="g127">
      <g clip-path="url(#clipPath131)" id="g129">
        <g transform="translate(232.565, 545.409)" id="g135">
          <path d="M 0,0 L 0,8.23 L 1.598,8.23 L 1.598,0.1 C 1.598,-2.953 3.216,-4.673 5.926,-4.673 C 8.535,-4.673 10.193,-3.096 10.193,0 L 10.193,8.23 L 11.79,8.23 L 11.79,0.121 C 11.79,-4.006 9.424,-6.148 5.885,-6.148 C 2.386,-6.148 0,-4.006 0,0" id="path137" style="fill: rgb(35, 31, 32); fill-opacity: 1; fill-rule: nonzero; stroke: none;"/>
        </g>
        <g transform="translate(247.463, 541.546)" id="g139">
          <path d="M 0,0 L 0.991,1.173 C 2.467,-0.163 3.883,-0.83 5.844,-0.83 C 7.746,-0.83 8.999,0.182 8.999,1.576 L 8.999,1.617 C 8.999,2.933 8.291,3.682 5.319,4.307 C 2.063,5.014 0.566,6.067 0.566,8.392 L 0.566,8.432 C 0.566,10.658 2.528,12.296 5.218,12.296 C 7.28,12.296 8.757,11.709 10.192,10.555 L 9.262,9.321 C 7.948,10.394 6.634,10.859 5.177,10.859 C 3.336,10.859 2.164,9.848 2.164,8.572 L 2.164,8.532 C 2.164,7.2 2.892,6.451 6.006,5.784 C 9.161,5.095 10.617,3.943 10.617,1.78 L 10.617,1.739 C 10.617,-0.688 8.595,-2.265 5.784,-2.265 C 3.539,-2.265 1.699,-1.516 0,0" id="path141" style="fill: rgb(35, 31, 32); fill-opacity: 1; fill-rule: nonzero; stroke: none;"/>
        </g>
      </g>
    </g>
    <g transform="matrix(2.32595, 0, 0, -2.32595, 300.652, 288.154)" id="g143">
      <path d="M 0,0 L -4.752,0 L -4.752,1.475 L 6.37,1.475 L 6.37,0 L 1.618,0 L 1.618,-12.681 L 0,-12.681 L 0,0 z" id="path145" style="fill: rgb(35, 31, 32); fill-opacity: 1; fill-rule: nonzero; stroke: none;"/>
    </g>
    <g transform="matrix(2.32595, 0, 0, -2.32595, -316.561, 1572.46)" id="g147">
      <g clip-path="url(#clipPath151)" id="g149">
        <g transform="translate(274.852, 553.639)" id="g155">
          <path d="M 0,0 L 6.087,0 C 7.828,0 9.221,-0.526 10.111,-1.416 C 10.8,-2.103 11.204,-3.093 11.204,-4.206 L 11.204,-4.247 C 11.204,-6.592 9.587,-7.969 7.361,-8.372 L 11.709,-14.157 L 9.749,-14.157 L 5.642,-8.656 L 1.598,-8.656 L 1.598,-14.157 L 0,-14.157 L 0,0 z M 5.946,-7.22 C 8.07,-7.22 9.587,-6.129 9.587,-4.307 L 9.587,-4.267 C 9.587,-2.529 8.251,-1.475 5.966,-1.475 L 1.598,-1.475 L 1.598,-7.22 L 5.946,-7.22 z" id="path157" style="fill: rgb(35, 31, 32); fill-opacity: 1; fill-rule: nonzero; stroke: none;"/>
        </g>
      </g>
    </g>
    <g transform="matrix(2.32595, 0, 0, -2.32595, 370.721, 284.489)" id="g159">
      <path d="M 0,0 L 1.497,0 L 7.948,-14.257 L 6.228,-14.257 L 4.572,-10.517 L -3.133,-10.517 L -4.812,-14.257 L -6.449,-14.257 L 0,0 z M 3.945,-9.08 L 0.729,-1.862 L -2.507,-9.08 L 3.945,-9.08 z" id="path161" style="fill: rgb(35, 31, 32); fill-opacity: 1; fill-rule: nonzero; stroke: none;"/>
    </g>
    <g transform="matrix(2.32595, 0, 0, -2.32595, 396.25, 284.723)" id="g163">
      <path d="M 0,0 L 1.598,0 L 1.598,-12.679 L 9.571,-12.679 L 9.571,-14.157 L 0,-14.157 L 0,0 z" id="path165" style="fill: rgb(35, 31, 32); fill-opacity: 1; fill-rule: nonzero; stroke: none;"/>
    </g>
    <path d="M 425.89624,284.72373 L 429.61078,284.72373 L 429.61078,317.6522 L 425.89624,317.6522 L 425.89624,284.72373 z" id="path167" style="fill: rgb(35, 31, 32); fill-opacity: 1; fill-rule: nonzero; stroke: none;"/>
    <g transform="matrix(2.32595, 0, 0, -2.32595, 451.747, 284.489)" id="g169">
      <path d="M 0,0 L 1.496,0 L 7.948,-14.257 L 6.229,-14.257 L 4.57,-10.517 L -3.135,-10.517 L -4.813,-14.257 L -6.45,-14.257 L 0,0 z M 3.944,-9.08 L 0.729,-1.862 L -2.507,-9.08 L 3.944,-9.08 z" id="path171" style="fill: rgb(35, 31, 32); fill-opacity: 1; fill-rule: nonzero; stroke: none;"/>
    </g>
  </g>
</svg>